<svg xmlns="http://www.w3.org/2000/svg" xmlns:xlink="http://www.w3.org/1999/xlink" width="590" zoomAndPan="magnify" viewBox="0 0 442.5 178.499995" height="238" preserveAspectRatio="xMidYMid meet" version="1.0"><defs><g/></defs><g fill="#000000" fill-opacity="1"><g transform="translate(42.252772, 113.904312)"><g><path d="M 30.609375 -35.203125 C 27.546875 -35.203125 24.910156 -34.066406 22.703125 -31.796875 C 20.492188 -29.535156 19.390625 -26.8125 19.390625 -23.625 C 19.390625 -20.375 20.492188 -17.613281 22.703125 -15.34375 C 24.910156 -13.082031 27.546875 -11.953125 30.609375 -11.953125 C 32.078125 -11.953125 33.46875 -12.132812 34.78125 -12.5 C 36.101562 -12.863281 37.070312 -13.234375 37.6875 -13.609375 L 38.515625 -14.15625 L 44.03125 -2.84375 C 43.601562 -2.539062 43.003906 -2.160156 42.234375 -1.703125 C 41.472656 -1.242188 39.726562 -0.617188 37 0.171875 C 34.269531 0.972656 31.34375 1.375 28.21875 1.375 C 21.289062 1.375 15.207031 -1.054688 9.96875 -5.921875 C 4.726562 -10.796875 2.109375 -16.632812 2.109375 -23.4375 C 2.109375 -30.300781 4.726562 -36.195312 9.96875 -41.125 C 15.207031 -46.0625 21.289062 -48.53125 28.21875 -48.53125 C 31.34375 -48.53125 34.222656 -48.160156 36.859375 -47.421875 C 39.492188 -46.691406 41.363281 -45.957031 42.46875 -45.21875 L 44.03125 -44.125 L 38.515625 -33 C 36.492188 -34.46875 33.859375 -35.203125 30.609375 -35.203125 Z M 30.609375 -35.203125 "/></g></g></g><g fill="#000000" fill-opacity="1"><g transform="translate(78.732681, 113.904312)"><g><path d="M 9.96875 -5.609375 C 4.726562 -10.265625 2.109375 -16.238281 2.109375 -23.53125 C 2.109375 -30.820312 4.832031 -36.8125 10.28125 -41.5 C 15.738281 -46.1875 22.484375 -48.53125 30.515625 -48.53125 C 38.421875 -48.53125 45.082031 -46.171875 50.5 -41.453125 C 55.925781 -36.734375 58.640625 -30.757812 58.640625 -23.53125 C 58.640625 -16.300781 55.988281 -10.34375 50.6875 -5.65625 C 45.394531 -0.96875 38.671875 1.375 30.515625 1.375 C 22.054688 1.375 15.207031 -0.953125 9.96875 -5.609375 Z M 22.5625 -31.53125 C 20.445312 -29.445312 19.390625 -26.78125 19.390625 -23.53125 C 19.390625 -20.28125 20.398438 -17.628906 22.421875 -15.578125 C 24.453125 -13.523438 27.117188 -12.5 30.421875 -12.5 C 33.609375 -12.5 36.226562 -13.539062 38.28125 -15.625 C 40.332031 -17.707031 41.359375 -20.34375 41.359375 -23.53125 C 41.359375 -26.78125 40.300781 -29.445312 38.1875 -31.53125 C 36.070312 -33.613281 33.484375 -34.65625 30.421875 -34.65625 C 27.296875 -34.65625 24.675781 -33.613281 22.5625 -31.53125 Z M 22.5625 -31.53125 "/></g></g></g><g fill="#000000" fill-opacity="1"><g transform="translate(130.834787, 113.904312)"><g><path d="M 30.609375 -35.203125 C 27.546875 -35.203125 24.910156 -34.066406 22.703125 -31.796875 C 20.492188 -29.535156 19.390625 -26.8125 19.390625 -23.625 C 19.390625 -20.375 20.492188 -17.613281 22.703125 -15.34375 C 24.910156 -13.082031 27.546875 -11.953125 30.609375 -11.953125 C 32.078125 -11.953125 33.46875 -12.132812 34.78125 -12.5 C 36.101562 -12.863281 37.070312 -13.234375 37.6875 -13.609375 L 38.515625 -14.15625 L 44.03125 -2.84375 C 43.601562 -2.539062 43.003906 -2.160156 42.234375 -1.703125 C 41.472656 -1.242188 39.726562 -0.617188 37 0.171875 C 34.269531 0.972656 31.34375 1.375 28.21875 1.375 C 21.289062 1.375 15.207031 -1.054688 9.96875 -5.921875 C 4.726562 -10.796875 2.109375 -16.632812 2.109375 -23.4375 C 2.109375 -30.300781 4.726562 -36.195312 9.96875 -41.125 C 15.207031 -46.0625 21.289062 -48.53125 28.21875 -48.53125 C 31.34375 -48.53125 34.222656 -48.160156 36.859375 -47.421875 C 39.492188 -46.691406 41.363281 -45.957031 42.46875 -45.21875 L 44.03125 -44.125 L 38.515625 -33 C 36.492188 -34.46875 33.859375 -35.203125 30.609375 -35.203125 Z M 30.609375 -35.203125 "/></g></g></g><g fill="#000000" fill-opacity="1"><g transform="translate(167.314696, 113.904312)"><g><path d="M 9.96875 -5.609375 C 4.726562 -10.265625 2.109375 -16.238281 2.109375 -23.53125 C 2.109375 -30.820312 4.832031 -36.8125 10.28125 -41.5 C 15.738281 -46.1875 22.484375 -48.53125 30.515625 -48.53125 C 38.421875 -48.53125 45.082031 -46.171875 50.5 -41.453125 C 55.925781 -36.734375 58.640625 -30.757812 58.640625 -23.53125 C 58.640625 -16.300781 55.988281 -10.34375 50.6875 -5.65625 C 45.394531 -0.96875 38.671875 1.375 30.515625 1.375 C 22.054688 1.375 15.207031 -0.953125 9.96875 -5.609375 Z M 22.5625 -31.53125 C 20.445312 -29.445312 19.390625 -26.78125 19.390625 -23.53125 C 19.390625 -20.28125 20.398438 -17.628906 22.421875 -15.578125 C 24.453125 -13.523438 27.117188 -12.5 30.421875 -12.5 C 33.609375 -12.5 36.226562 -13.539062 38.28125 -15.625 C 40.332031 -17.707031 41.359375 -20.34375 41.359375 -23.53125 C 41.359375 -26.78125 40.300781 -29.445312 38.1875 -31.53125 C 36.070312 -33.613281 33.484375 -34.65625 30.421875 -34.65625 C 27.296875 -34.65625 24.675781 -33.613281 22.5625 -31.53125 Z M 22.5625 -31.53125 "/></g></g></g><g fill="#000000" fill-opacity="1"><g transform="translate(219.416802, 113.904312)"><g><path d="M 5.515625 0 L 5.515625 -47.15625 L 21.78125 -47.15625 L 21.78125 -42.1875 L 21.96875 -42.1875 C 26.195312 -46.414062 30.703125 -48.53125 35.484375 -48.53125 C 37.804688 -48.53125 40.117188 -48.222656 42.421875 -47.609375 C 44.722656 -47.003906 46.929688 -46.054688 49.046875 -44.765625 C 51.160156 -43.472656 52.875 -41.644531 54.1875 -39.28125 C 55.507812 -36.925781 56.171875 -34.1875 56.171875 -31.0625 L 56.171875 0 L 39.890625 0 L 39.890625 -26.65625 C 39.890625 -29.101562 39.109375 -31.242188 37.546875 -33.078125 C 35.984375 -34.921875 33.945312 -35.84375 31.4375 -35.84375 C 28.988281 -35.84375 26.765625 -34.894531 24.765625 -33 C 22.773438 -31.101562 21.78125 -28.988281 21.78125 -26.65625 L 21.78125 0 Z M 5.515625 0 "/></g></g></g><g fill="#000000" fill-opacity="1"><g transform="translate(271.518918, 113.904312)"><g><path d="M 20.859375 -47.15625 L 20.859375 -24.734375 C 20.859375 -20.066406 21.5625 -16.753906 22.96875 -14.796875 C 24.382812 -12.835938 26.773438 -11.859375 30.140625 -11.859375 C 33.515625 -11.859375 35.90625 -12.835938 37.3125 -14.796875 C 38.726562 -16.753906 39.4375 -20.066406 39.4375 -24.734375 L 39.4375 -47.15625 L 55.703125 -47.15625 L 55.703125 -20.78125 C 55.703125 -12.9375 53.664062 -7.28125 49.59375 -3.8125 C 45.519531 -0.351562 39.039062 1.375 30.15625 1.375 C 21.269531 1.375 14.785156 -0.351562 10.703125 -3.8125 C 6.628906 -7.28125 4.59375 -12.9375 4.59375 -20.78125 L 4.59375 -47.15625 Z M 20.859375 -47.15625 "/></g></g></g><g fill="#000000" fill-opacity="1"><g transform="translate(323.161543, 113.904312)"><g><path d="M 8.265625 -47.15625 L 8.265625 -64.71875 L 24.546875 -64.71875 L 24.546875 -47.15625 L 34.46875 -47.15625 L 34.46875 -34.75 L 24.546875 -34.75 L 24.546875 -19.765625 C 24.546875 -15.410156 25.769531 -13.234375 28.21875 -13.234375 C 28.832031 -13.234375 29.472656 -13.351562 30.140625 -13.59375 C 30.816406 -13.84375 31.34375 -14.09375 31.71875 -14.34375 L 32.265625 -14.703125 L 36.3125 -1.5625 C 32.8125 0.394531 28.828125 1.375 24.359375 1.375 C 21.296875 1.375 18.660156 0.835938 16.453125 -0.234375 C 14.242188 -1.304688 12.570312 -2.742188 11.4375 -4.546875 C 10.3125 -6.359375 9.5 -8.257812 9 -10.25 C 8.507812 -12.238281 8.265625 -14.367188 8.265625 -16.640625 L 8.265625 -34.75 L 1.46875 -34.75 L 1.46875 -47.15625 Z M 8.265625 -47.15625 "/></g></g></g><g fill="#000000" fill-opacity="1"><g transform="translate(350.819485, 113.904312)"><g/></g></g><g fill="#000000" fill-opacity="1"><g transform="translate(367.266218, 113.904312)"><g><path d="M 16 -19.671875 C 18.9375 -19.671875 21.429688 -18.644531 23.484375 -16.59375 C 25.535156 -14.539062 26.5625 -12.039062 26.5625 -9.09375 C 26.5625 -6.21875 25.535156 -3.753906 23.484375 -1.703125 C 21.429688 0.347656 18.9375 1.375 16 1.375 C 13.113281 1.375 10.644531 0.347656 8.59375 -1.703125 C 6.539062 -3.753906 5.515625 -6.21875 5.515625 -9.09375 C 5.515625 -12.039062 6.539062 -14.539062 8.59375 -16.59375 C 10.644531 -18.644531 13.113281 -19.671875 16 -19.671875 Z M 16 -19.671875 "/></g></g></g><g fill="#000000" fill-opacity="1"><g transform="translate(129.268803, 138.809485)"><g><path d="M 5.53125 -9.921875 C 6.507812 -9.921875 7.320312 -9.765625 7.96875 -9.453125 C 8.613281 -9.140625 8.9375 -8.742188 8.9375 -8.265625 C 8.9375 -8.054688 8.867188 -7.867188 8.734375 -7.703125 C 8.597656 -7.535156 8.425781 -7.453125 8.21875 -7.453125 C 8.050781 -7.453125 7.921875 -7.476562 7.828125 -7.53125 C 7.742188 -7.582031 7.617188 -7.660156 7.453125 -7.765625 C 7.378906 -7.835938 7.265625 -7.925781 7.109375 -8.03125 C 6.953125 -8.101562 6.738281 -8.160156 6.46875 -8.203125 C 6.195312 -8.253906 5.953125 -8.28125 5.734375 -8.28125 C 5.085938 -8.28125 4.519531 -8.132812 4.03125 -7.84375 C 3.539062 -7.550781 3.160156 -7.140625 2.890625 -6.609375 C 2.617188 -6.085938 2.484375 -5.503906 2.484375 -4.859375 C 2.484375 -4.210938 2.613281 -3.628906 2.875 -3.109375 C 3.144531 -2.585938 3.519531 -2.175781 4 -1.875 C 4.476562 -1.582031 5.023438 -1.4375 5.640625 -1.4375 C 6.285156 -1.4375 6.804688 -1.535156 7.203125 -1.734375 C 7.285156 -1.785156 7.398438 -1.867188 7.546875 -1.984375 C 7.671875 -2.078125 7.78125 -2.148438 7.875 -2.203125 C 7.96875 -2.253906 8.082031 -2.28125 8.21875 -2.28125 C 8.457031 -2.28125 8.648438 -2.203125 8.796875 -2.046875 C 8.941406 -1.890625 9.015625 -1.6875 9.015625 -1.4375 C 9.015625 -1.175781 8.847656 -0.921875 8.515625 -0.671875 C 8.191406 -0.421875 7.753906 -0.210938 7.203125 -0.046875 C 6.648438 0.109375 6.0625 0.1875 5.4375 0.1875 C 4.5 0.1875 3.671875 -0.03125 2.953125 -0.46875 C 2.242188 -0.90625 1.691406 -1.507812 1.296875 -2.28125 C 0.910156 -3.050781 0.71875 -3.910156 0.71875 -4.859375 C 0.71875 -5.816406 0.921875 -6.679688 1.328125 -7.453125 C 1.734375 -8.222656 2.300781 -8.828125 3.03125 -9.265625 C 3.757812 -9.703125 4.59375 -9.921875 5.53125 -9.921875 Z M 5.53125 -9.921875 "/></g></g></g><g fill="#000000" fill-opacity="1"><g transform="translate(150.833663, 138.809485)"><g><path d="M 10.484375 -4.84375 C 10.484375 -3.882812 10.265625 -3.019531 9.828125 -2.25 C 9.398438 -1.488281 8.8125 -0.890625 8.0625 -0.453125 C 7.320312 -0.0234375 6.503906 0.1875 5.609375 0.1875 C 4.703125 0.1875 3.875 -0.0234375 3.125 -0.453125 C 2.382812 -0.890625 1.796875 -1.488281 1.359375 -2.25 C 0.929688 -3.019531 0.71875 -3.882812 0.71875 -4.84375 C 0.71875 -5.8125 0.929688 -6.679688 1.359375 -7.453125 C 1.796875 -8.234375 2.382812 -8.835938 3.125 -9.265625 C 3.875 -9.703125 4.703125 -9.921875 5.609375 -9.921875 C 6.503906 -9.921875 7.320312 -9.703125 8.0625 -9.265625 C 8.8125 -8.835938 9.398438 -8.234375 9.828125 -7.453125 C 10.265625 -6.679688 10.484375 -5.8125 10.484375 -4.84375 Z M 8.734375 -4.84375 C 8.734375 -5.507812 8.59375 -6.101562 8.3125 -6.625 C 8.039062 -7.15625 7.664062 -7.5625 7.1875 -7.84375 C 6.707031 -8.132812 6.179688 -8.28125 5.609375 -8.28125 C 5.023438 -8.28125 4.492188 -8.132812 4.015625 -7.84375 C 3.546875 -7.5625 3.171875 -7.15625 2.890625 -6.625 C 2.617188 -6.101562 2.484375 -5.507812 2.484375 -4.84375 C 2.484375 -4.1875 2.617188 -3.597656 2.890625 -3.078125 C 3.171875 -2.566406 3.546875 -2.164062 4.015625 -1.875 C 4.492188 -1.582031 5.023438 -1.4375 5.609375 -1.4375 C 6.179688 -1.4375 6.707031 -1.582031 7.1875 -1.875 C 7.664062 -2.164062 8.039062 -2.566406 8.3125 -3.078125 C 8.59375 -3.597656 8.734375 -4.1875 8.734375 -4.84375 Z M 8.734375 -4.84375 "/></g></g></g><g fill="#000000" fill-opacity="1"><g transform="translate(174.099462, 138.809485)"><g><path d="M 0.765625 -1.515625 C 0.648438 -1.691406 0.59375 -1.859375 0.59375 -2.015625 C 0.59375 -2.265625 0.722656 -2.472656 0.984375 -2.640625 C 1.109375 -2.734375 1.25 -2.78125 1.40625 -2.78125 C 1.625 -2.78125 1.828125 -2.6875 2.015625 -2.5 C 2.390625 -2.082031 2.785156 -1.765625 3.203125 -1.546875 C 3.628906 -1.335938 4.140625 -1.234375 4.734375 -1.234375 C 5.203125 -1.253906 5.613281 -1.363281 5.96875 -1.5625 C 6.332031 -1.769531 6.515625 -2.097656 6.515625 -2.546875 C 6.515625 -2.972656 6.332031 -3.296875 5.96875 -3.515625 C 5.601562 -3.734375 5.066406 -3.9375 4.359375 -4.125 C 3.671875 -4.3125 3.097656 -4.503906 2.640625 -4.703125 C 2.191406 -4.910156 1.804688 -5.207031 1.484375 -5.59375 C 1.171875 -5.976562 1.015625 -6.488281 1.015625 -7.125 C 1.015625 -7.675781 1.171875 -8.160156 1.484375 -8.578125 C 1.804688 -9.003906 2.226562 -9.332031 2.75 -9.5625 C 3.269531 -9.800781 3.835938 -9.921875 4.453125 -9.921875 C 5.046875 -9.921875 5.632812 -9.804688 6.21875 -9.578125 C 6.8125 -9.359375 7.289062 -9.019531 7.65625 -8.5625 C 7.800781 -8.394531 7.875 -8.21875 7.875 -8.03125 C 7.875 -7.832031 7.773438 -7.640625 7.578125 -7.453125 C 7.460938 -7.335938 7.3125 -7.28125 7.125 -7.28125 C 6.90625 -7.28125 6.726562 -7.359375 6.59375 -7.515625 C 6.332031 -7.804688 6.007812 -8.03125 5.625 -8.1875 C 5.25 -8.351562 4.835938 -8.4375 4.390625 -8.4375 C 3.921875 -8.4375 3.519531 -8.335938 3.1875 -8.140625 C 2.863281 -7.953125 2.703125 -7.628906 2.703125 -7.171875 C 2.710938 -6.742188 2.898438 -6.425781 3.265625 -6.21875 C 3.628906 -6.007812 4.1875 -5.804688 4.9375 -5.609375 C 5.59375 -5.429688 6.132812 -5.242188 6.5625 -5.046875 C 7 -4.847656 7.363281 -4.554688 7.65625 -4.171875 C 7.957031 -3.785156 8.109375 -3.273438 8.109375 -2.640625 C 8.109375 -2.066406 7.941406 -1.566406 7.609375 -1.140625 C 7.273438 -0.710938 6.835938 -0.382812 6.296875 -0.15625 C 5.765625 0.0703125 5.195312 0.1875 4.59375 0.1875 C 3.8125 0.1875 3.085938 0.0507812 2.421875 -0.21875 C 1.765625 -0.488281 1.210938 -0.921875 0.765625 -1.515625 Z M 0.765625 -1.515625 "/></g></g></g><g fill="#000000" fill-opacity="1"><g transform="translate(194.980261, 138.809485)"><g><path d="M 12.4375 -9.859375 C 14.59375 -9.859375 15.671875 -8.515625 15.671875 -5.828125 L 15.671875 -0.890625 C 15.671875 -0.628906 15.585938 -0.414062 15.421875 -0.25 C 15.265625 -0.0820312 15.054688 0 14.796875 0 C 14.535156 0 14.320312 -0.0820312 14.15625 -0.25 C 13.988281 -0.425781 13.90625 -0.640625 13.90625 -0.890625 L 13.90625 -5.8125 C 13.90625 -7.425781 13.226562 -8.234375 11.875 -8.234375 C 11.394531 -8.234375 10.957031 -8.125 10.5625 -7.90625 C 10.175781 -7.6875 9.875 -7.390625 9.65625 -7.015625 C 9.445312 -6.648438 9.34375 -6.25 9.34375 -5.8125 L 9.34375 -0.890625 C 9.34375 -0.640625 9.257812 -0.425781 9.09375 -0.25 C 8.925781 -0.0820312 8.710938 0 8.453125 0 C 8.191406 0 7.976562 -0.0820312 7.8125 -0.25 C 7.65625 -0.414062 7.578125 -0.628906 7.578125 -0.890625 L 7.578125 -5.828125 C 7.578125 -6.554688 7.421875 -7.140625 7.109375 -7.578125 C 6.804688 -8.015625 6.300781 -8.234375 5.59375 -8.234375 C 4.863281 -8.234375 4.257812 -8 3.78125 -7.53125 C 3.3125 -7.070312 3.078125 -6.503906 3.078125 -5.828125 L 3.078125 -0.890625 C 3.078125 -0.640625 2.992188 -0.425781 2.828125 -0.25 C 2.660156 -0.0820312 2.445312 0 2.1875 0 C 1.925781 0 1.710938 -0.0820312 1.546875 -0.25 C 1.390625 -0.414062 1.3125 -0.628906 1.3125 -0.890625 L 1.3125 -8.8125 C 1.3125 -9.050781 1.394531 -9.253906 1.5625 -9.421875 C 1.726562 -9.597656 1.9375 -9.6875 2.1875 -9.6875 C 2.445312 -9.6875 2.660156 -9.597656 2.828125 -9.421875 C 2.992188 -9.253906 3.078125 -9.050781 3.078125 -8.8125 L 3.078125 -8.15625 C 3.390625 -8.632812 3.8125 -9.035156 4.34375 -9.359375 C 4.882812 -9.691406 5.472656 -9.859375 6.109375 -9.859375 C 7.640625 -9.859375 8.628906 -9.179688 9.078125 -7.828125 C 9.347656 -8.347656 9.796875 -8.816406 10.421875 -9.234375 C 11.054688 -9.648438 11.726562 -9.859375 12.4375 -9.859375 Z M 12.4375 -9.859375 "/></g></g></g><g fill="#000000" fill-opacity="1"><g transform="translate(224.014426, 138.809485)"><g><path d="M 9.828125 -5.21875 C 9.816406 -5 9.722656 -4.8125 9.546875 -4.65625 C 9.367188 -4.5 9.164062 -4.421875 8.9375 -4.421875 L 2.421875 -4.421875 C 2.503906 -3.523438 2.84375 -2.800781 3.4375 -2.25 C 4.039062 -1.707031 4.773438 -1.4375 5.640625 -1.4375 C 6.234375 -1.4375 6.710938 -1.523438 7.078125 -1.703125 C 7.453125 -1.878906 7.78125 -2.101562 8.0625 -2.375 C 8.25 -2.476562 8.429688 -2.53125 8.609375 -2.53125 C 8.816406 -2.53125 8.988281 -2.457031 9.125 -2.3125 C 9.269531 -2.164062 9.34375 -1.992188 9.34375 -1.796875 C 9.34375 -1.535156 9.21875 -1.300781 8.96875 -1.09375 C 8.613281 -0.738281 8.140625 -0.4375 7.546875 -0.1875 C 6.953125 0.0625 6.347656 0.1875 5.734375 0.1875 C 4.734375 0.1875 3.851562 -0.0195312 3.09375 -0.4375 C 2.34375 -0.863281 1.757812 -1.453125 1.34375 -2.203125 C 0.925781 -2.953125 0.71875 -3.800781 0.71875 -4.75 C 0.71875 -5.789062 0.929688 -6.703125 1.359375 -7.484375 C 1.785156 -8.265625 2.347656 -8.863281 3.046875 -9.28125 C 3.742188 -9.707031 4.492188 -9.921875 5.296875 -9.921875 C 6.078125 -9.921875 6.8125 -9.710938 7.5 -9.296875 C 8.195312 -8.890625 8.753906 -8.328125 9.171875 -7.609375 C 9.597656 -6.898438 9.816406 -6.101562 9.828125 -5.21875 Z M 5.296875 -8.28125 C 4.597656 -8.28125 3.992188 -8.085938 3.484375 -7.703125 C 2.984375 -7.316406 2.65625 -6.71875 2.5 -5.90625 L 7.953125 -5.90625 L 7.953125 -6.046875 C 7.890625 -6.703125 7.597656 -7.238281 7.078125 -7.65625 C 6.554688 -8.070312 5.960938 -8.28125 5.296875 -8.28125 Z M 5.296875 -8.28125 "/></g></g></g><g fill="#000000" fill-opacity="1"><g transform="translate(246.61463, 138.809485)"><g><path d="M 3.9375 -7.96875 L 3.9375 -2.453125 C 3.9375 -1.835938 4.210938 -1.53125 4.765625 -1.53125 C 4.859375 -1.53125 4.976562 -1.550781 5.125 -1.59375 C 5.269531 -1.644531 5.382812 -1.671875 5.46875 -1.671875 C 5.632812 -1.671875 5.769531 -1.601562 5.875 -1.46875 C 5.988281 -1.332031 6.046875 -1.15625 6.046875 -0.9375 C 6.046875 -0.6875 5.894531 -0.46875 5.59375 -0.28125 C 5.300781 -0.09375 4.972656 0 4.609375 0 C 4.203125 0 3.828125 -0.0390625 3.484375 -0.125 C 3.148438 -0.21875 2.847656 -0.4375 2.578125 -0.78125 C 2.316406 -1.132812 2.1875 -1.671875 2.1875 -2.390625 L 2.1875 -7.96875 L 1.109375 -7.96875 C 0.878906 -7.96875 0.6875 -8.046875 0.53125 -8.203125 C 0.375 -8.359375 0.296875 -8.550781 0.296875 -8.78125 C 0.296875 -9.019531 0.375 -9.210938 0.53125 -9.359375 C 0.6875 -9.503906 0.878906 -9.578125 1.109375 -9.578125 L 2.1875 -9.578125 L 2.1875 -11.140625 C 2.1875 -11.378906 2.269531 -11.585938 2.4375 -11.765625 C 2.601562 -11.941406 2.816406 -12.03125 3.078125 -12.03125 C 3.316406 -12.03125 3.519531 -11.941406 3.6875 -11.765625 C 3.851562 -11.585938 3.9375 -11.378906 3.9375 -11.140625 L 3.9375 -9.578125 L 5.46875 -9.578125 C 5.707031 -9.578125 5.90625 -9.5 6.0625 -9.34375 C 6.21875 -9.195312 6.296875 -9.003906 6.296875 -8.765625 C 6.296875 -8.535156 6.21875 -8.34375 6.0625 -8.1875 C 5.90625 -8.039062 5.707031 -7.96875 5.46875 -7.96875 Z M 3.9375 -7.96875 "/></g></g></g><g fill="#000000" fill-opacity="1"><g transform="translate(265.702059, 138.809485)"><g><path d="M 2.984375 -0.890625 C 2.984375 -0.640625 2.898438 -0.425781 2.734375 -0.25 C 2.566406 -0.0820312 2.351562 0 2.09375 0 C 1.84375 0 1.632812 -0.0820312 1.46875 -0.25 C 1.300781 -0.425781 1.21875 -0.640625 1.21875 -0.890625 L 1.21875 -8.90625 C 1.21875 -9.144531 1.300781 -9.347656 1.46875 -9.515625 C 1.632812 -9.691406 1.84375 -9.78125 2.09375 -9.78125 C 2.351562 -9.78125 2.566406 -9.691406 2.734375 -9.515625 C 2.898438 -9.347656 2.984375 -9.144531 2.984375 -8.90625 Z M 2.09375 -11 C 1.738281 -11 1.484375 -11.0625 1.328125 -11.1875 C 1.171875 -11.320312 1.09375 -11.535156 1.09375 -11.828125 L 1.09375 -12.125 C 1.09375 -12.414062 1.175781 -12.625 1.34375 -12.75 C 1.507812 -12.875 1.765625 -12.9375 2.109375 -12.9375 C 2.453125 -12.9375 2.703125 -12.867188 2.859375 -12.734375 C 3.015625 -12.609375 3.09375 -12.40625 3.09375 -12.125 L 3.09375 -11.828125 C 3.09375 -11.523438 3.007812 -11.3125 2.84375 -11.1875 C 2.6875 -11.0625 2.4375 -11 2.09375 -11 Z M 2.09375 -11 "/></g></g></g><g fill="#000000" fill-opacity="1"><g transform="translate(281.960755, 138.809485)"><g><path d="M 5.53125 -9.921875 C 6.507812 -9.921875 7.320312 -9.765625 7.96875 -9.453125 C 8.613281 -9.140625 8.9375 -8.742188 8.9375 -8.265625 C 8.9375 -8.054688 8.867188 -7.867188 8.734375 -7.703125 C 8.597656 -7.535156 8.425781 -7.453125 8.21875 -7.453125 C 8.050781 -7.453125 7.921875 -7.476562 7.828125 -7.53125 C 7.742188 -7.582031 7.617188 -7.660156 7.453125 -7.765625 C 7.378906 -7.835938 7.265625 -7.925781 7.109375 -8.03125 C 6.953125 -8.101562 6.738281 -8.160156 6.46875 -8.203125 C 6.195312 -8.253906 5.953125 -8.28125 5.734375 -8.28125 C 5.085938 -8.28125 4.519531 -8.132812 4.03125 -7.84375 C 3.539062 -7.550781 3.160156 -7.140625 2.890625 -6.609375 C 2.617188 -6.085938 2.484375 -5.503906 2.484375 -4.859375 C 2.484375 -4.210938 2.613281 -3.628906 2.875 -3.109375 C 3.144531 -2.585938 3.519531 -2.175781 4 -1.875 C 4.476562 -1.582031 5.023438 -1.4375 5.640625 -1.4375 C 6.285156 -1.4375 6.804688 -1.535156 7.203125 -1.734375 C 7.285156 -1.785156 7.398438 -1.867188 7.546875 -1.984375 C 7.671875 -2.078125 7.78125 -2.148438 7.875 -2.203125 C 7.96875 -2.253906 8.082031 -2.28125 8.21875 -2.28125 C 8.457031 -2.28125 8.648438 -2.203125 8.796875 -2.046875 C 8.941406 -1.890625 9.015625 -1.6875 9.015625 -1.4375 C 9.015625 -1.175781 8.847656 -0.921875 8.515625 -0.671875 C 8.191406 -0.421875 7.753906 -0.210938 7.203125 -0.046875 C 6.648438 0.109375 6.0625 0.1875 5.4375 0.1875 C 4.5 0.1875 3.671875 -0.03125 2.953125 -0.46875 C 2.242188 -0.90625 1.691406 -1.507812 1.296875 -2.28125 C 0.910156 -3.050781 0.71875 -3.910156 0.71875 -4.859375 C 0.71875 -5.816406 0.921875 -6.679688 1.328125 -7.453125 C 1.734375 -8.222656 2.300781 -8.828125 3.03125 -9.265625 C 3.757812 -9.703125 4.59375 -9.921875 5.53125 -9.921875 Z M 5.53125 -9.921875 "/></g></g></g><g fill="#000000" fill-opacity="1"><g transform="translate(303.525614, 138.809485)"><g><path d="M 0.765625 -1.515625 C 0.648438 -1.691406 0.59375 -1.859375 0.59375 -2.015625 C 0.59375 -2.265625 0.722656 -2.472656 0.984375 -2.640625 C 1.109375 -2.734375 1.25 -2.78125 1.40625 -2.78125 C 1.625 -2.78125 1.828125 -2.6875 2.015625 -2.5 C 2.390625 -2.082031 2.785156 -1.765625 3.203125 -1.546875 C 3.628906 -1.335938 4.140625 -1.234375 4.734375 -1.234375 C 5.203125 -1.253906 5.613281 -1.363281 5.96875 -1.5625 C 6.332031 -1.769531 6.515625 -2.097656 6.515625 -2.546875 C 6.515625 -2.972656 6.332031 -3.296875 5.96875 -3.515625 C 5.601562 -3.734375 5.066406 -3.9375 4.359375 -4.125 C 3.671875 -4.3125 3.097656 -4.503906 2.640625 -4.703125 C 2.191406 -4.910156 1.804688 -5.207031 1.484375 -5.59375 C 1.171875 -5.976562 1.015625 -6.488281 1.015625 -7.125 C 1.015625 -7.675781 1.171875 -8.160156 1.484375 -8.578125 C 1.804688 -9.003906 2.226562 -9.332031 2.75 -9.5625 C 3.269531 -9.800781 3.835938 -9.921875 4.453125 -9.921875 C 5.046875 -9.921875 5.632812 -9.804688 6.21875 -9.578125 C 6.8125 -9.359375 7.289062 -9.019531 7.65625 -8.5625 C 7.800781 -8.394531 7.875 -8.21875 7.875 -8.03125 C 7.875 -7.832031 7.773438 -7.640625 7.578125 -7.453125 C 7.460938 -7.335938 7.3125 -7.28125 7.125 -7.28125 C 6.90625 -7.28125 6.726562 -7.359375 6.59375 -7.515625 C 6.332031 -7.804688 6.007812 -8.03125 5.625 -8.1875 C 5.25 -8.351562 4.835938 -8.4375 4.390625 -8.4375 C 3.921875 -8.4375 3.519531 -8.335938 3.1875 -8.140625 C 2.863281 -7.953125 2.703125 -7.628906 2.703125 -7.171875 C 2.710938 -6.742188 2.898438 -6.425781 3.265625 -6.21875 C 3.628906 -6.007812 4.1875 -5.804688 4.9375 -5.609375 C 5.59375 -5.429688 6.132812 -5.242188 6.5625 -5.046875 C 7 -4.847656 7.363281 -4.554688 7.65625 -4.171875 C 7.957031 -3.785156 8.109375 -3.273438 8.109375 -2.640625 C 8.109375 -2.066406 7.941406 -1.566406 7.609375 -1.140625 C 7.273438 -0.710938 6.835938 -0.382812 6.296875 -0.15625 C 5.765625 0.0703125 5.195312 0.1875 4.59375 0.1875 C 3.8125 0.1875 3.085938 0.0507812 2.421875 -0.21875 C 1.765625 -0.488281 1.210938 -0.921875 0.765625 -1.515625 Z M 0.765625 -1.515625 "/></g></g></g></svg>